<?xml version="1.0" standalone="no"?>
<!DOCTYPE svg PUBLIC "-//W3C//DTD SVG 20010904//EN"
 "http://www.w3.org/TR/2001/REC-SVG-20010904/DTD/svg10.dtd">
<svg version="1.0" xmlns="http://www.w3.org/2000/svg"
 width="114.000000pt" height="114.000000pt" viewBox="0 0 114.000000 114.000000"
 preserveAspectRatio="xMidYMid meet">
<metadata>
Created by potrace 1.11, written by Peter Selinger 2001-2013
</metadata>
<g transform="translate(0.000000,114.000000) scale(0.100000,-0.100000)"
fill="#000000" stroke="none">
<path d="M592 865 c-3 -5 -32 -84 -63 -175 -32 -91 -76 -216 -99 -279 -22 -63
-39 -120 -36 -127 7 -19 114 -22 131 -4 14 16 106 265 170 458 27 84 34 117
26 125 -14 14 -121 16 -129 2z m88 -39 c0 -16 -104 -322 -148 -436 -27 -69
-32 -75 -61 -78 -17 -2 -31 1 -31 7 0 5 29 88 64 183 35 95 73 205 86 243 12
39 27 76 33 83 13 17 57 15 57 -2z"/>
<path d="M202 626 c-56 -57 -102 -111 -102 -121 0 -20 197 -215 217 -215 14 0
83 58 83 70 0 4 -32 39 -72 78 l-72 70 67 69 c37 38 67 74 67 79 0 13 -63 74
-76 74 -6 0 -56 -47 -112 -104z m128 38 c11 -13 5 -23 -41 -72 -89 -93 -89
-80 -9 -157 66 -64 69 -70 54 -86 -16 -17 -21 -14 -100 57 -45 42 -85 83 -88
91 -4 10 22 44 76 99 45 46 85 84 89 84 3 0 12 -7 19 -16z"/>
<path d="M762 697 c-18 -18 -32 -37 -32 -42 0 -5 30 -40 68 -78 l67 -68 -72
-71 c-40 -38 -73 -74 -73 -78 0 -12 69 -70 84 -70 19 0 216 195 216 214 0 19
-197 226 -215 226 -6 0 -25 -15 -43 -33z m137 -102 l82 -85 -22 -29 c-12 -16
-52 -56 -89 -90 -65 -57 -68 -59 -84 -42 -16 17 -13 22 54 84 38 37 70 69 70
73 0 3 -30 37 -66 75 -44 45 -64 73 -61 84 12 29 34 15 116 -70z"/>
</g>
</svg>
